<?xml version="1.0" encoding="UTF-8"?>
<svg version="1.1" xmlns="http://www.w3.org/2000/svg" width="257" height="250">
<path d="M0 0 C84.81 0 169.62 0 257 0 C257 82.5 257 165 257 250 C172.19 250 87.38 250 0 250 C0 167.5 0 85 0 0 Z " fill="#253AB1" transform="translate(0,0)"/>
<path d="M0 0 C1.97481441 -0.00958531 3.94948657 -0.04071957 5.92407227 -0.07226562 C14.85107672 -0.10806314 22.93775894 1.02142192 31.57446289 3.24023438 C32.69288574 3.51996094 33.81130859 3.7996875 34.96362305 4.08789062 C58.47222886 10.20820141 78.47907 28.14225682 90.60180664 48.67382812 C99.76349325 64.82132741 103.93504139 81.0377032 103.88696289 99.61523438 C103.90307617 100.85273437 103.91918945 102.09023437 103.93579102 103.36523438 C103.94004195 111.44200057 102.90848549 118.51873165 100.57446289 126.24023438 C100.38102295 126.93777832 100.18758301 127.63532227 99.98828125 128.35400391 C96.01577004 142.48471373 89.12828255 154.10364619 79.57446289 165.24023438 C78.80360352 166.2121875 78.03274414 167.18414062 77.23852539 168.18554688 C74.52684872 171.43482592 71.47472999 174.02901749 68.13696289 176.61523438 C67.2222522 177.32522583 67.2222522 177.32522583 66.2890625 178.04956055 C43.82882371 195.1073494 17.65713049 202.52311293 -10.41381836 198.84912109 C-32.35883716 195.18060138 -50.33163757 185.63072922 -66.42553711 170.24023438 C-67.03913086 169.68980469 -67.65272461 169.139375 -68.28491211 168.57226562 C-83.59551496 154.35026068 -94.35187878 131.19476347 -95.60253906 110.28027344 C-96.2257773 76.97799771 -89.28502879 51.8677839 -65.73803711 27.17773438 C-48.0568913 9.95548854 -24.56657563 0.07177088 0 0 Z " fill="#FBFBFC" transform="translate(129.425537109375,26.759765625)"/>
<path d="M0 0 C22.40278796 19.26009857 38.34856809 45.49192041 41.23803711 75.31640625 C43.49678326 106.25962663 36.43252502 136.02840507 15.875 159.95947266 C-0.86486848 178.39720419 -20.0711431 191.62302584 -44.58984375 197.67431641 C-45.84667969 198.03138672 -47.10351562 198.38845703 -48.3984375 198.75634766 C-54.92541934 200.18139626 -61.59926031 199.97227434 -68.24584961 199.93505859 C-70.51898984 199.92435574 -72.79133715 199.93499049 -75.06445312 199.94775391 C-82.76202056 199.95591357 -90.11444837 199.69740639 -97.58984375 197.67431641 C-98.26072021 197.50270996 -98.93159668 197.33110352 -99.62280273 197.15429688 C-118.78191311 192.01995252 -135.26640366 182.3887667 -149.58984375 168.67431641 C-150.2653125 168.06201172 -150.94078125 167.44970703 -151.63671875 166.81884766 C-171.28713539 148.38675685 -182.78367514 120.12423724 -183.91015625 93.51416016 C-184.2423521 80.38180172 -183.41446485 68.25630667 -179.58984375 55.67431641 C-179.23921875 54.47033203 -178.88859375 53.26634766 -178.52734375 52.02587891 C-169.2698455 23.41763778 -147.62899575 0.10290836 -121.21630859 -13.67822266 C-114.57098916 -16.98099656 -107.74182393 -19.33188975 -100.58984375 -21.32568359 C-99.50316406 -21.64537109 -98.41648437 -21.96505859 -97.296875 -22.29443359 C-63.83130871 -30.61268712 -26.37554125 -21.99311871 0 0 Z M-103.58984375 -7.32568359 C-104.24549316 -7.08430664 -104.90114258 -6.84292969 -105.57666016 -6.59423828 C-119.86562776 -1.21939596 -131.68956767 6.95693086 -142.58984375 17.67431641 C-143.3375 18.40908203 -144.08515625 19.14384766 -144.85546875 19.90087891 C-154.43532223 29.91618027 -162.25760907 42.49641624 -166.58984375 55.67431641 C-166.98042969 56.82931641 -167.37101562 57.98431641 -167.7734375 59.17431641 C-173.37586659 77.72852144 -173.01720755 100.37329195 -166.58984375 118.67431641 C-166.3484668 119.37943359 -166.10708984 120.08455078 -165.85839844 120.81103516 C-160.61421624 135.71902479 -152.50233532 147.23248756 -141.58984375 158.67431641 C-141.06390625 159.27501953 -140.53796875 159.87572266 -139.99609375 160.49462891 C-124.3086828 177.70275827 -99.1416998 186.95091721 -76.37109375 188.08447266 C-48.8580633 188.79308288 -25.71118379 180.21035334 -4.58984375 162.67431641 C-3.75582031 162.03494141 -2.92179688 161.39556641 -2.0625 160.73681641 C9.98059643 150.69139 18.52339571 135.33459801 23.41015625 120.67431641 C23.79042969 119.59537109 24.17070312 118.51642578 24.5625 117.40478516 C32.83221617 93.53738369 29.87365276 66.83467427 19.1953125 44.26416016 C7.62634179 20.66247058 -11.89637654 2.26969498 -36.76953125 -6.43896484 C-48.64913947 -10.2823675 -59.79780609 -11.718811 -72.27734375 -11.70068359 C-72.93970032 -11.69980743 -73.60205688 -11.69893127 -74.28448486 -11.69802856 C-84.70314464 -11.65259882 -93.80676904 -10.99569386 -103.58984375 -7.32568359 Z " fill="#2D42B5" transform="translate(204.58984375,38.32568359375)"/>
<path d="M0 0 C13.86 0 27.72 0 42 0 C42 5.94 42 11.88 42 18 C49.26 18 56.52 18 64 18 C64.02255425 26.1969097 64.04091696 34.39379545 64.05181217 42.59072781 C64.0570402 46.39651577 64.06413638 50.20228148 64.07543945 54.00805664 C64.0862712 57.67792544 64.09227744 61.34777278 64.09487724 65.01765633 C64.09673097 66.42074992 64.1003506 67.82384229 64.10573006 69.2269268 C64.11294419 71.1856968 64.11340809 73.1444882 64.11352539 75.10327148 C64.115746 76.22023911 64.11796661 77.33720673 64.12025452 78.48802185 C64 81 64 81 63 82 C60.38849712 82.10041457 57.80341635 82.13617057 55.19140625 82.12939453 C53.96464676 82.13202301 53.96464676 82.13202301 52.71310425 82.13470459 C49.9962149 82.13912385 47.27939007 82.13618486 44.5625 82.1328125 C42.68302396 82.13348552 40.80354801 82.13445553 38.92407227 82.13571167 C34.97964654 82.13718874 31.03524342 82.13503379 27.09082031 82.13037109 C22.02287497 82.1246738 16.95498258 82.12795276 11.88703918 82.13394356 C8.00443113 82.13754892 4.12183572 82.1364107 0.23922729 82.13381577 C-1.62997443 82.13314643 -3.49917728 82.13397516 -5.36837769 82.13629532 C-7.97608504 82.13882143 -10.58370541 82.13498184 -13.19140625 82.12939453 C-13.97170197 82.13141876 -14.75199768 82.13344299 -15.55593872 82.13552856 C-20.88573747 82.11426253 -20.88573747 82.11426253 -22 81 C-22.09920863 79.07238183 -22.12799365 77.14110646 -22.12939453 75.2109375 C-22.13254669 73.9729541 -22.13569885 72.7349707 -22.13894653 71.45947266 C-22.13715675 70.09798141 -22.1351058 68.73649049 -22.1328125 67.375 C-22.13348559 65.98876936 -22.13445566 64.60253883 -22.13571167 63.21630859 C-22.1371884 60.30760578 -22.1350349 57.39893363 -22.13037109 54.49023438 C-22.12467381 50.75403402 -22.12795294 47.01790548 -22.13394356 43.28170776 C-22.13754985 40.41820734 -22.13641027 37.55472407 -22.13381577 34.69122314 C-22.13314668 33.31325268 -22.13397426 31.93528068 -22.13629532 30.55731201 C-22.13882292 28.63456246 -22.13429024 26.71180748 -22.12939453 24.7890625 C-22.12859894 23.69287598 -22.12780334 22.59668945 -22.12698364 21.46728516 C-22 19 -22 19 -21 18 C-19.43827255 17.91314397 -17.87270656 17.89297781 -16.30859375 17.90234375 C-15.36435547 17.90556641 -14.42011719 17.90878906 -13.44726562 17.91210938 C-11.95743164 17.92467773 -11.95743164 17.92467773 -10.4375 17.9375 C-9.44041016 17.94201172 -8.44332031 17.94652344 -7.41601562 17.95117188 C-4.94398513 17.96299977 -2.47198528 17.98093585 0 18 C0 12.06 0 6.12 0 0 Z " fill="#3348BA" transform="translate(122,43)"/>
<path d="M0 0 C22.40278796 19.26009857 38.34856809 45.49192041 41.23803711 75.31640625 C43.49678326 106.25962663 36.43252502 136.02840507 15.875 159.95947266 C-0.86486848 178.39720419 -20.0711431 191.62302584 -44.58984375 197.67431641 C-45.84667969 198.03138672 -47.10351562 198.38845703 -48.3984375 198.75634766 C-54.92541934 200.18139626 -61.59926031 199.97227434 -68.24584961 199.93505859 C-70.51898984 199.92435574 -72.79133715 199.93499049 -75.06445312 199.94775391 C-82.76202056 199.95591357 -90.11444837 199.69740639 -97.58984375 197.67431641 C-98.26072021 197.50270996 -98.93159668 197.33110352 -99.62280273 197.15429688 C-118.78191311 192.01995252 -135.26640366 182.3887667 -149.58984375 168.67431641 C-150.2653125 168.06201172 -150.94078125 167.44970703 -151.63671875 166.81884766 C-171.28713539 148.38675685 -182.78367514 120.12423724 -183.91015625 93.51416016 C-184.2423521 80.38180172 -183.41446485 68.25630667 -179.58984375 55.67431641 C-179.23921875 54.47033203 -178.88859375 53.26634766 -178.52734375 52.02587891 C-169.2698455 23.41763778 -147.62899575 0.10290836 -121.21630859 -13.67822266 C-114.57098916 -16.98099656 -107.74182393 -19.33188975 -100.58984375 -21.32568359 C-99.50316406 -21.64537109 -98.41648437 -21.96505859 -97.296875 -22.29443359 C-63.83130871 -30.61268712 -26.37554125 -21.99311871 0 0 Z M-98.58984375 -16.32568359 C-99.78222656 -16.00857422 -100.97460938 -15.69146484 -102.203125 -15.36474609 C-117.19953204 -10.89907895 -131.14237027 -2.99500556 -142.58984375 7.67431641 C-143.08709961 8.13596191 -143.58435547 8.59760742 -144.09667969 9.07324219 C-150.83404917 15.38770319 -156.66382577 21.81554029 -161.58984375 29.67431641 C-162.110625 30.46193359 -162.63140625 31.24955078 -163.16796875 32.06103516 C-167.32552129 38.58083346 -170.02707037 45.40018187 -172.58984375 52.67431641 C-173.14865234 54.19605469 -173.14865234 54.19605469 -173.71875 55.74853516 C-182.98104923 81.89487799 -179.42240255 110.35864937 -167.9609375 135.20556641 C-155.45047234 159.58791151 -133.84899728 180.55078458 -107.5703125 189.35058594 C-85.45104681 196.41755382 -61.97273333 197.36826469 -39.58984375 190.67431641 C-38.52378906 190.38556641 -37.45773438 190.09681641 -36.359375 189.79931641 C-11.30392479 182.38528623 10.19725162 163.39081241 22.64453125 140.70947266 C37.24785632 112.93551253 40.50308429 84.08509075 31.22265625 54.11181641 C26.54011443 40.94478835 20.25194967 29.51319444 11.41015625 18.67431641 C10.94867188 18.07232422 10.4871875 17.47033203 10.01171875 16.85009766 C-2.46324062 0.90056907 -21.87986265 -8.88290759 -40.58984375 -15.32568359 C-42.12705078 -15.86902344 -42.12705078 -15.86902344 -43.6953125 -16.42333984 C-60.68288151 -21.71905974 -81.59132797 -21.05069476 -98.58984375 -16.32568359 Z " fill="#EFF0F6" transform="translate(204.58984375,38.32568359375)"/>
<path d="M0 0 C5.94 0 11.88 0 18 0 C18 2.31 18 4.62 18 7 C18.99 7 19.98 7 21 7 C21 4.69 21 2.38 21 0 C32.88 0 44.76 0 57 0 C57 2.31 57 4.62 57 7 C57.99 7 58.98 7 60 7 C60 4.69 60 2.38 60 0 C65.94 0 71.88 0 78 0 C78 11.22 78 22.44 78 34 C52.26 34 26.52 34 0 34 C0 22.78 0 11.56 0 0 Z " fill="#FAFAFD" transform="translate(104,87)"/>
<path d="M0 0 C3.53043837 1.73312429 5.40462497 2.97162495 7.375 6.375 C9.01832078 13.27694729 9.01832078 13.27694729 6.8203125 16.99609375 C0.98557887 24.82692046 -6.16436606 31.74446928 -13.5859375 38.06640625 C-17.17051602 41.1767983 -20.52932014 44.48135885 -23.85546875 47.86328125 C-24.36961838 48.38529114 -24.88376801 48.90730103 -25.41349792 49.44512939 C-27.55022353 51.61839313 -29.68388882 53.79447608 -31.80834961 55.97973633 C-33.37978889 57.59355043 -34.96057205 59.19771977 -36.54296875 60.80078125 C-37.01703659 61.29347 -37.49110443 61.78615875 -37.97953796 62.29377747 C-40.80476374 65.14048499 -43.06015842 67.11320871 -47 68 C-53.68556074 67.86593713 -60.34273066 66.24366866 -66.8828125 64.96875 C-93.76015252 59.8890426 -119.62337061 56.49293552 -147 57 C-147 55.68 -147 54.36 -147 53 C-121.78197558 51.69261394 -98.27605481 54.01493586 -73.48339844 58.79858398 C-71.8643158 59.10849525 -71.8643158 59.10849525 -70.21252441 59.42466736 C-68.19881208 59.81436975 -66.18709011 60.21458501 -64.17810059 60.62794495 C-53.28511298 63.15648276 -53.28511298 63.15648276 -42.85771179 60.74902344 C-40.7562055 58.94359748 -38.88850563 57.02669182 -37 55 C-35.51400373 53.57374991 -34.02297351 52.15273064 -32.52758789 50.73632812 C-28.26123966 46.57590382 -24.02147386 42.38852319 -19.78881836 38.19384766 C-17.96492067 36.39167276 -16.1347782 34.59579698 -14.29858398 32.80615234 C-11.63369283 30.20803198 -8.98890215 27.59087844 -6.34765625 24.96875 C-5.52483658 24.17376099 -4.70201691 23.37877197 -3.85426331 22.55969238 C0.8373138 18.02797284 0.8373138 18.02797284 3.08032227 12.09179688 C3.17374022 9.04599945 3.17374022 9.04599945 2.0625 6.5625 C-0.54885423 4.58420134 -2.65605098 4.54687586 -5.87573242 4.6184082 C-9.69921902 5.3052384 -11.96064611 7.68760325 -14.6875 10.3125 C-15.89388839 11.4095615 -17.10093649 12.50589794 -18.30859375 13.6015625 C-18.91558105 14.16391602 -19.52256836 14.72626953 -20.14794922 15.30566406 C-23.11127354 18.01664097 -26.1786719 20.60041176 -29.25 23.1875 C-29.79873779 23.65647705 -30.34747559 24.1254541 -30.9128418 24.60864258 C-34.58034434 27.7262232 -36.4698176 29.12722909 -41.26611328 29.11352539 C-42.58725632 29.11341209 -42.58725632 29.11341209 -43.93508911 29.11329651 C-44.88721283 29.10813522 -45.83933655 29.10297394 -46.8203125 29.09765625 C-47.79410858 29.0962413 -48.76790466 29.09482635 -49.77120972 29.09336853 C-52.88917073 29.08775973 -56.0070606 29.07520573 -59.125 29.0625 C-61.23567605 29.05748613 -63.34635322 29.05292303 -65.45703125 29.04882812 C-70.63804521 29.03778745 -75.81901752 29.02104073 -81 29 C-81 27.68 -81 26.36 -81 25 C-68.79 25 -56.58 25 -44 25 C-44.99 21.7 -45.98 18.4 -47 15 C-50.7262708 14.21552194 -54.31168393 13.92245619 -58.10546875 13.859375 C-70.96339933 13.6448271 -83.1096483 12.41588628 -95.69995117 9.72753906 C-107.46161553 7.09759157 -107.46161553 7.09759157 -118.9375 9.375 C-121.95144926 13.21093542 -123.3973185 17.43291458 -125 22 C-128.45831586 22.02894547 -131.91660072 22.04678 -135.375 22.0625 C-136.35984375 22.07087891 -137.3446875 22.07925781 -138.359375 22.08789062 C-139.77089844 22.09272461 -139.77089844 22.09272461 -141.2109375 22.09765625 C-142.51490479 22.10551147 -142.51490479 22.10551147 -143.84521484 22.11352539 C-146 22 -146 22 -148 21 C-147.505 19.515 -147.505 19.515 -147 18 C-140.4 18 -133.8 18 -127 18 C-126.67 16.02 -126.34 14.04 -126 12 C-123.89656153 8.51201975 -121.17707737 5.75202165 -117.75 3.5625 C-109.49104272 1.87316783 -101.80879806 3.52940614 -93.75 5.4375 C-82.4770129 7.95968809 -71.60862502 8.57082169 -60.10253906 8.37084961 C-53.14360477 8.37131665 -48.75245564 8.80024532 -43.40649414 13.45703125 C-40.68179412 16.44611372 -40.05131385 18.84543832 -39.875 22.8125 C-39.91625 23.534375 -39.9575 24.25625 -40 25 C-35.19305946 21.96248543 -31.00154741 18.51620345 -26.75 14.75 C-25.41993248 13.59429017 -24.08920257 12.43934224 -22.7578125 11.28515625 C-20.51900914 9.33756566 -18.31024537 7.37099612 -16.1171875 5.37109375 C-10.94147929 0.83626477 -6.98932428 -1.80412768 0 0 Z " fill="#3246B9" transform="translate(213,131)"/>
<path d="M0 0 C25.74 0 51.48 0 78 0 C78 5.94 78 11.88 78 18 C52.26 18 26.52 18 0 18 C0 12.06 0 6.12 0 0 Z " fill="#FFFFFF" transform="translate(104,65)"/>
<path d="M0 0 C11.88 0 23.76 0 36 0 C36 4.62 36 9.24 36 14 C24.12 14 12.24 14 0 14 C0 9.38 0 4.76 0 0 Z " fill="#F6F7FC" transform="translate(125,47)"/>
</svg>
