<?xml version="1.0" encoding="UTF-8"?>
<svg version="1.1" xmlns="http://www.w3.org/2000/svg" width="292" height="291">
<path d="M0 0 C1.0513916 0.30599121 1.0513916 0.30599121 2.12402344 0.61816406 C19.62260961 5.77983375 34.57549351 13.5585193 48.7265625 25.140625 C50.47422937 26.56998828 52.26072496 27.95197599 54.0625 29.3125 C58.57833466 33.4440083 62.24430688 38.18040747 66 43 C66.67289063 43.845625 67.34578125 44.69125 68.0390625 45.5625 C87.57719872 71.09440709 94.31295725 102.06884535 91.69140625 133.7265625 C91.25215406 136.85963563 90.68336695 139.91118138 90 143 C89.61521484 144.76150391 89.61521484 144.76150391 89.22265625 146.55859375 C84.57157447 165.74181087 75.6203227 183.41140598 62.515625 198.16015625 C60.95228349 199.92498432 59.43402451 201.73224455 57.9921875 203.59765625 C41.19104049 223.85786293 13.12238549 234.84568374 -12 239 C-12.78584473 239.17273438 -13.57168945 239.34546875 -14.38134766 239.5234375 C-28.45718884 242.08506737 -44.22279932 240.49002097 -58 237 C-59.1034375 236.75636719 -60.206875 236.51273438 -61.34375 236.26171875 C-77.28400841 232.33251954 -92.49273395 224.57351853 -105 214 C-106.07186966 213.15845768 -107.14619109 212.32003092 -108.22265625 211.484375 C-130.97383036 193.4973214 -146.66891015 164.43785423 -150.28540039 135.73486328 C-151.78131959 121.64719413 -152.09508851 106.87453469 -149 93 C-148.75507813 91.85015625 -148.51015625 90.7003125 -148.2578125 89.515625 C-141.06330638 59.33690022 -121.76717166 32.35053229 -95.5625 15.75 C-83.75700582 8.82807356 -72.17130075 3.55304845 -59 0 C-57.90171875 -0.32097656 -56.8034375 -0.64195313 -55.671875 -0.97265625 C-38.34318933 -5.30482767 -17.12117482 -5.14021727 0 0 Z M-43 19 C-43.15620555 20.41327947 -43.25056173 21.8335459 -43.31640625 23.25390625 C-43.35830078 24.10791016 -43.40019531 24.96191406 -43.44335938 25.84179688 C-43.48267578 26.73962891 -43.52199219 27.63746094 -43.5625 28.5625 C-43.60568359 29.46419922 -43.64886719 30.36589844 -43.69335938 31.29492188 C-43.79978142 33.52978485 -43.90179988 35.76476308 -44 38 C-44.71655762 38.01458252 -45.43311523 38.02916504 -46.17138672 38.04418945 C-49.40647983 38.11849 -52.64052019 38.21520861 -55.875 38.3125 C-57.00292969 38.33505859 -58.13085938 38.35761719 -59.29296875 38.38085938 C-60.36933594 38.41630859 -61.44570312 38.45175781 -62.5546875 38.48828125 C-64.04718018 38.52755737 -64.04718018 38.52755737 -65.56982422 38.56762695 C-66.37178223 38.71031006 -67.17374023 38.85299316 -68 39 C-70.44402277 42.66603415 -70.25320539 44.43959356 -70.25878906 48.81054688 C-70.2622937 49.49866959 -70.26579834 50.1867923 -70.26940918 50.89576721 C-70.27821112 53.17019745 -70.27238291 55.4443166 -70.265625 57.71875 C-70.2669721 59.29911356 -70.268913 60.87947672 -70.27142334 62.45983887 C-70.27437251 65.77193141 -70.27008364 69.08391608 -70.26074219 72.39599609 C-70.24934772 76.64318173 -70.2559083 80.8901146 -70.26788712 85.13729095 C-70.27511132 88.40063382 -70.27281522 91.66391669 -70.26763153 94.92726135 C-70.26629658 96.4933729 -70.26793735 98.05948989 -70.27259064 99.62559509 C-70.27766511 101.81369475 -70.26993299 104.00138405 -70.25878906 106.18945312 C-70.25719788 107.43505005 -70.25560669 108.68064697 -70.25396729 109.96398926 C-70.2315662 113.17634424 -70.2315662 113.17634424 -68 116 C-66.13889566 116.44739436 -66.13889566 116.44739436 -63.96983337 116.36749268 C-63.1271138 116.37306183 -62.28439423 116.37863098 -61.4161377 116.3843689 C-60.48982544 116.37515411 -59.56351318 116.36593933 -58.60913086 116.35644531 C-57.14806664 116.35951187 -57.14806664 116.35951187 -55.65748596 116.36264038 C-52.42641649 116.36565725 -49.19585286 116.34714521 -45.96484375 116.328125 C-43.72807441 116.32506911 -41.49130317 116.3231917 -39.25453186 116.32244873 C-34.56276184 116.31784009 -29.87116292 116.30339171 -25.17944336 116.28125 C-19.1508206 116.25295091 -13.12233273 116.24203757 -7.09364986 116.2375679 C-2.47415301 116.23342073 2.14531629 116.22360941 6.76479912 116.21169281 C8.98846654 116.20597641 11.21213665 116.20122227 13.43580818 116.19742584 C16.53676185 116.19058764 19.63760629 116.17696735 22.73852539 116.16113281 C23.66686188 116.16001495 24.59519836 116.15889709 25.55166626 116.15774536 C29.5973359 116.53928848 29.5973359 116.53928848 33 115 C33.10023555 112.66285675 33.13619203 110.35525675 33.12939453 108.01757812 C33.13114685 107.2875206 33.13289917 106.55746307 33.13470459 105.80528259 C33.13912299 103.38058122 33.13618517 100.95595218 33.1328125 98.53125 C33.13348554 96.85355617 33.13445557 95.17586244 33.13571167 93.49816895 C33.13718863 89.97744826 33.13503416 86.4567529 33.13037109 82.93603516 C33.1246738 78.41289504 33.12795282 73.88981426 33.13394356 69.36667633 C33.13754923 65.90097605 33.13641056 62.43528993 33.13381577 58.96958923 C33.13314651 57.30134575 33.13397486 55.63310101 33.13629532 53.96485901 C33.13882195 51.63734506 33.13498113 49.30992852 33.12939453 46.98242188 C33.13243088 45.93821327 33.13243088 45.93821327 33.13552856 44.87290955 C33.39225632 41.65786761 33.39225632 41.65786761 32 39 C30.22130274 38.84235595 28.43681524 38.74899323 26.65234375 38.68359375 C25.03295898 38.62075195 25.03295898 38.62075195 23.38085938 38.55664062 C22.24455078 38.51732422 21.10824219 38.47800781 19.9375 38.4375 C18.79732422 38.39431641 17.65714844 38.35113281 16.48242188 38.30664062 C13.65507805 38.20017161 10.82764262 38.09815793 8 38 C8.02320313 36.80761719 8.04640625 35.61523438 8.0703125 34.38671875 C8.08907178 32.82031876 8.10727181 31.253912 8.125 29.6875 C8.15013672 28.50897461 8.15013672 28.50897461 8.17578125 27.30664062 C8.18222656 26.54931641 8.18867188 25.79199219 8.1953125 25.01171875 C8.20578613 24.31522217 8.21625977 23.61872559 8.22705078 22.90112305 C8.10574595 20.668827 8.10574595 20.668827 6 18 C3.87181451 17.55589295 3.87181451 17.55589295 1.38256836 17.64355469 C-0.05385765 17.63905304 -0.05385765 17.63905304 -1.51930237 17.63446045 C-3.07402504 17.65298065 -3.07402504 17.65298065 -4.66015625 17.671875 C-6.25046913 17.67468475 -6.25046913 17.67468475 -7.87290955 17.67755127 C-10.11655822 17.68428161 -12.36019497 17.69821541 -14.60375977 17.71875 C-18.05170501 17.74990247 -21.49919363 17.75971866 -24.94726562 17.765625 C-27.12240145 17.77479455 -29.29753259 17.78517017 -31.47265625 17.796875 C-32.51116226 17.80112488 -33.54966827 17.80537476 -34.61964417 17.80975342 C-36.05134193 17.82416473 -36.05134193 17.82416473 -37.51196289 17.83886719 C-38.35642471 17.84569519 -39.20088654 17.85252319 -40.07093811 17.85955811 C-42.00713627 17.78917077 -42.00713627 17.78917077 -43 19 Z M46.375 132.5 C45.15538141 133.57340941 43.93531836 134.64631399 42.71484375 135.71875 C42.10108887 136.26273438 41.48733398 136.80671875 40.85498047 137.3671875 C37.91745522 139.95289017 34.92875112 142.47686194 31.9375 145 C31.41397949 145.44408203 30.89045898 145.88816406 30.35107422 146.34570312 C28.90547275 147.5694433 27.45289305 148.78492576 26 150 C25.11441406 150.7425 24.22882813 151.485 23.31640625 152.25 C21 154 21 154 18 155 C17.90203125 154.26394531 17.8040625 153.52789062 17.703125 152.76953125 C16.63328158 145.0335913 16.63328158 145.0335913 12 139 C5.43564012 135.25413259 -0.77826167 135.72236987 -8.1875 135.75 C-22.10119848 135.58437106 -35.18195421 133.42145808 -48.75268555 130.43847656 C-64.22935126 126.77269149 -64.22935126 126.77269149 -79 131 C-83.48349561 135.10192151 -85.77219059 139.43047649 -88 145 C-90.40059817 146.20029908 -91.89360649 146.11459743 -94.5703125 146.09765625 C-95.46621094 146.09443359 -96.36210938 146.09121094 -97.28515625 146.08789062 C-98.22230469 146.07951172 -99.15945312 146.07113281 -100.125 146.0625 C-101.06988281 146.05798828 -102.01476562 146.05347656 -102.98828125 146.04882812 C-105.32558387 146.03702357 -107.66276061 146.02055759 -110 146 C-110.33 147.32 -110.66 148.64 -111 150 C-106.70845978 150.0867562 -102.41714332 150.1403089 -98.125 150.1875 C-96.90167969 150.21263672 -95.67835937 150.23777344 -94.41796875 150.26367188 C-93.25136719 150.27333984 -92.08476563 150.28300781 -90.8828125 150.29296875 C-89.80402832 150.3086792 -88.72524414 150.32438965 -87.61376953 150.34057617 C-86.75122559 150.22818604 -85.88868164 150.1157959 -85 150 C-83.16775215 147.25162822 -82.59910148 145.71861387 -81.8125 142.625 C-80.44585201 138.45026434 -78.90578106 136.16970562 -75.07739258 133.96459961 C-67.33530108 130.36969968 -58.96382053 132.6274944 -51 134.3125 C-49.8759375 134.53873047 -48.751875 134.76496094 -47.59375 134.99804688 C-38.94177404 136.7516892 -38.94177404 136.7516892 -35.73510742 137.59716797 C-27.71615293 139.69022211 -19.43552853 139.40788176 -11.20288086 139.53173828 C-9.15195665 139.56566945 -7.10147503 139.61069402 -5.05078125 139.65625 C-3.84075439 139.67494141 -2.63072754 139.69363281 -1.3840332 139.71289062 C3.46284673 140.12411137 6.9603665 141.306911 11 144 C12.92101491 147.74092378 13 149.59511207 13 154 C-1.19 154.33 -15.38 154.66 -30 155 C-30.33 155.99 -30.66 156.98 -31 158 C-23.51159051 158.22950786 -16.02409759 158.38634642 -8.53295898 158.49438477 C-5.98866894 158.53945218 -3.44460948 158.60072676 -0.90112305 158.67895508 C15.49358294 159.8971433 15.49358294 159.8971433 29.94921875 153.71484375 C31.34972388 152.18783328 32.70536551 150.61774446 34 149 C35.47864618 147.64302423 36.97602625 146.30586438 38.5 145 C39.57314453 144.03513672 39.57314453 144.03513672 40.66796875 143.05078125 C45.00368322 139.23796701 49.48845559 135.60213073 54 132 C54.69480469 131.42507812 55.38960937 130.85015625 56.10546875 130.2578125 C59.05895052 128.29694419 61.550862 128.69204125 65 129 C67.56454749 129.83174513 68.62943805 130.54120901 70.3125 132.625 C71.58002828 137.00373407 70.69736767 141.3591349 68.9375 145.5 C68.628125 145.995 68.31875 146.49 68 147 C67.34 147 66.68 147 66 147 C66 147.66 66 148.32 66 149 C65.360625 149.268125 64.72125 149.53625 64.0625 149.8125 C61.66868314 150.88667752 61.66868314 150.88667752 61 154 C59.67637534 154.68574045 58.34111392 155.349127 57 156 C55.512321 157.33008454 54.07625828 158.71880589 52.67797852 160.14257812 C51.41130089 161.42400696 51.41130089 161.42400696 50.11903381 162.73132324 C49.21479172 163.65529907 48.31054962 164.5792749 47.37890625 165.53125 C46.43319081 166.4883236 45.48680466 167.44473488 44.53977966 168.4005127 C40.52659676 172.45336058 36.5262691 176.51881287 32.52905273 180.58740234 C30.079877 183.07936939 27.62337181 185.56392289 25.16245842 188.04429626 C23.77575345 189.44665616 22.39775408 190.85760726 21.01991272 192.26867676 C20.17230881 193.12296265 19.3247049 193.97724854 18.45141602 194.85742188 C17.34033226 195.987547 17.34033226 195.987547 16.20680237 197.14050293 C13.11260786 199.74773487 10.56847658 200.97069153 6.4987793 201.04673767 C-0.12280259 200.29388782 -6.64480098 199.26942694 -13.1875 198.00390625 C-14.21125732 197.81030014 -15.23501465 197.61669403 -16.28979492 197.41722107 C-19.52747999 196.80386092 -22.76375061 196.18338581 -26 195.5625 C-28.169178 195.14990224 -30.3384482 194.73778898 -32.5078125 194.32617188 C-35.57805624 193.74356697 -38.64816298 193.16034612 -41.7175293 192.57313538 C-43.56970254 192.21897401 -45.42249621 191.8680404 -47.27592468 191.52050781 C-49.09373424 191.17316643 -50.90849898 190.80949784 -52.71980286 190.4296875 C-59.54583899 189.05247162 -66.05886193 188.73547125 -73.01171875 188.8046875 C-74.10595657 188.8075174 -75.2001944 188.81034729 -76.32759094 188.81326294 C-79.78101098 188.82434966 -83.23415996 188.84943221 -86.6875 188.875 C-89.04622018 188.88504469 -91.40494448 188.89416792 -93.76367188 188.90234375 C-99.50920517 188.92425113 -105.25458321 188.95761188 -111 189 C-110.67 190.32 -110.34 191.64 -110 193 C-108.065802 192.98259766 -108.065802 192.98259766 -106.0925293 192.96484375 C-77.11060949 192.78137111 -49.9185975 194.83223328 -21.60229492 201.02026367 C-16.98558841 202.01885318 -12.35303841 202.9013337 -7.703125 203.73046875 C-7.02297836 203.85400726 -6.34283173 203.97754578 -5.64207458 204.10482788 C4.89636397 206.13779363 4.89636397 206.13779363 14.80029297 203.32202148 C18.11423492 200.91709993 20.9633775 198.27431306 23.80859375 195.3515625 C24.33840347 194.81655121 24.8682132 194.28153992 25.41407776 193.73031616 C27.09344171 192.03328868 28.76592249 190.32969481 30.4375 188.625 C32.64111155 186.38462429 34.84791372 184.14746391 37.05859375 181.9140625 C37.58411331 181.3830896 38.10963287 180.8521167 38.65107727 180.30505371 C42.28548244 176.65717882 46.02450517 173.26826395 50 170 C51.76853161 168.39157302 53.38089395 166.76629751 55 165 C55 164.34 55 163.68 55 163 C55.66 163 56.32 163 57 163 C58.66666667 161.66666667 58.66666667 161.66666667 60 160 C60 159.34 60 158.68 60 158 C60.66 158 61.32 158 62 158 C63.66666667 156.66666667 63.66666667 156.66666667 65 155 C65 154.34 65 153.68 65 153 C65.66 153 66.32 153 67 153 C68.66666667 151.66666667 68.66666667 151.66666667 70 150 C70 149.34 70 148.68 70 148 C70.66 148 71.32 148 72 148 C75.38578591 144.09332395 75.45055957 140.31143592 75.2890625 135.37109375 C74.79238821 131.2970222 73.0827582 129.12286036 70.3125 126.25 C60.84240823 121.13103148 53.43950688 126.11981304 46.375 132.5 Z " fill="#000000" transform="translate(173,31)"/>
<path d="M0 0 C9.66735835 8.71299391 18.04221107 17.99495144 25 29 C25.35642578 29.56009766 25.71285156 30.12019531 26.08007812 30.69726562 C42.06880118 56.22622123 49.53511569 87.01353617 46 117 C45.87367188 118.19496094 45.74734375 119.38992187 45.6171875 120.62109375 C42.43948379 146.53382307 31.71288697 171.03278851 15 191 C14.30132812 191.85078125 13.60265625 192.7015625 12.8828125 193.578125 C9.51255921 197.5776787 9.51255921 197.5776787 8 199 C7.34 199 6.68 199 6 199 C5.79761719 199.54785156 5.59523437 200.09570312 5.38671875 200.66015625 C3.45130006 203.92583455 0.71301363 206.06394682 -2.1875 208.4375 C-2.77901855 208.92758545 -3.37053711 209.4176709 -3.97998047 209.92260742 C-28.38828291 230.01427504 -58.8704822 240.45808075 -90.375 240.3125 C-91.64504883 240.30758545 -92.91509766 240.3026709 -94.22363281 240.29760742 C-103.5092537 240.18174512 -112.0018695 239.42032143 -121 237 C-121.66290039 236.83371094 -122.32580078 236.66742188 -123.00878906 236.49609375 C-144.03274843 231.19840917 -162.21101897 221.64781684 -179 208 C-180.299375 207.0409375 -180.299375 207.0409375 -181.625 206.0625 C-184.44846212 203.61054605 -186.77495197 200.89465337 -189.19140625 198.046875 C-190.81694146 196.2071764 -192.50214606 194.59024665 -194.3125 192.9375 C-215.93241546 171.55996027 -226.89823979 137.20586379 -227.24145508 107.57348633 C-227.33323624 70.53323009 -216.3953221 37.48332392 -191 10 C-190.29254639 9.2268042 -190.29254639 9.2268042 -189.57080078 8.43798828 C-139.95481875 -45.21044742 -54.51294741 -47.23226635 0 0 Z M-174 4 C-174.84046875 4.70125 -175.6809375 5.4025 -176.546875 6.125 C-181.50336459 10.38292394 -185.89617024 14.91906791 -190 20 C-190.69867188 20.86109375 -191.39734375 21.7221875 -192.1171875 22.609375 C-211.8313461 47.84895521 -221.1223567 78.05024602 -220 110 C-219.98195312 110.99773437 -219.96390625 111.99546875 -219.9453125 113.0234375 C-218.64123139 142.86388176 -204.92479281 170.32036305 -185 192 C-184.19949219 192.88300781 -183.39898437 193.76601562 -182.57421875 194.67578125 C-163.80238201 214.43075837 -138.41415161 225.98670184 -112 231 C-111.24122559 231.1750708 -110.48245117 231.3501416 -109.70068359 231.53051758 C-92.45268221 234.52888195 -71.61141456 233.1431194 -55 228 C-54.28005859 227.78569336 -53.56011719 227.57138672 -52.81835938 227.35058594 C-22.85205745 218.24941466 4.06828749 198.104078 20 171 C20.49886719 170.236875 20.99773437 169.47375 21.51171875 168.6875 C31.99907724 152.39218182 38.61882881 131.3852778 39 112 C39.03867187 110.7109375 39.07734375 109.421875 39.1171875 108.09375 C39.80494146 75.15672443 29.38227644 45.69425969 9 20 C8.30777344 19.09314453 8.30777344 19.09314453 7.6015625 18.16796875 C4.81237293 14.62064376 1.57530846 11.74830977 -1.8515625 8.84375 C-3.27052952 7.6260183 -4.66243021 6.37593448 -6.0234375 5.09375 C-30.56808341 -17.89974729 -64.02968498 -27.0152786 -96.953125 -26.27734375 C-125.24182364 -25.21143125 -152.4626401 -14.28870785 -174 4 Z " fill="#010102" transform="translate(234,46)"/>
<path d="M0 0 C7.26 0 14.52 0 22 0 C23.35439668 2.70879335 23.06501451 5.00933268 23 8 C23.99 8 24.98 8 26 8 C25.9690625 6.2984375 25.9690625 6.2984375 25.9375 4.5625 C26 1 26 1 27 0 C30.09081465 -0.1011692 33.15882555 -0.13968558 36.25 -0.1328125 C37.17844727 -0.13376923 38.10689453 -0.13472595 39.06347656 -0.13571167 C41.03059965 -0.13639355 42.99772496 -0.13453872 44.96484375 -0.13037109 C47.98703026 -0.12502295 51.00906815 -0.13031582 54.03125 -0.13671875 C55.93750033 -0.13605797 57.84375057 -0.13477681 59.75 -0.1328125 C60.66040039 -0.13483673 61.57080078 -0.13686096 62.50878906 -0.13894653 C68.88505031 -0.11494969 68.88505031 -0.11494969 70 1 C70.04092937 3.33297433 70.04241723 5.66705225 70 8 C70.99 8 71.98 8 73 8 C73.33 5.36 73.66 2.72 74 0 C81.26 0 88.52 0 96 0 C96 13.2 96 26.4 96 40 C92.6904355 41.65478225 88.99728808 41.13805869 85.359375 41.12939453 C84.01776306 41.13202301 84.01776306 41.13202301 82.64904785 41.13470459 C79.68267902 41.13911788 76.71636947 41.13618694 73.75 41.1328125 C71.69498686 41.13348569 69.6399738 41.13445584 67.58496094 41.13571167 C63.27408084 41.13718793 58.96322144 41.13503636 54.65234375 41.13037109 C49.11706902 41.12467385 43.58184277 41.12795324 38.04656982 41.13394356 C33.80191683 41.13755108 29.5572754 41.1364097 25.31262207 41.13381577 C23.27119949 41.13314703 21.22977586 41.13397307 19.18835449 41.13629532 C16.3390829 41.13882496 13.48989066 41.1349768 10.640625 41.12939453 C9.36572205 41.13243088 9.36572205 41.13243088 8.06506348 41.13552856 C2.22852785 41.11426393 2.22852785 41.11426393 0 40 C0 26.8 0 13.6 0 0 Z " fill="#000000" transform="translate(107,102)"/>
<path d="M0 0 C31.68 0 63.36 0 96 0 C96 7.26 96 14.52 96 22 C94.124412 23.875588 91.41711282 23.12662979 88.92132568 23.13552856 C88.04752258 23.13350433 87.17371948 23.1314801 86.2734375 23.12939453 C85.35806213 23.13114685 84.44268677 23.13289917 83.49957275 23.13470459 C80.45802951 23.13912461 77.41654389 23.13618459 74.375 23.1328125 C72.2713215 23.1334855 70.16764308 23.13445548 68.06396484 23.13571167 C63.64875551 23.13718885 59.23356637 23.13503345 54.81835938 23.13037109 C49.14507439 23.1246738 43.47183671 23.1279527 37.79855347 23.13394356 C33.45271444 23.13754864 29.10688672 23.13641083 24.76104736 23.13381577 C22.6685587 23.13314635 20.57606903 23.13397543 18.48358154 23.13629532 C15.56454734 23.13882098 12.64559088 23.13498248 9.7265625 23.12939453 C8.41585785 23.13243088 8.41585785 23.13243088 7.07867432 23.13552856 C1.11426236 23.11426236 1.11426236 23.11426236 0 22 C0 14.74 0 7.48 0 0 Z " fill="#000000" transform="translate(107,75)"/>
<path d="M0 0 C13.86 0 27.72 0 42 0 C43.49341703 2.98683407 43.13175178 5.74399774 43.125 9.0625 C43.12886719 10.96708984 43.12886719 10.96708984 43.1328125 12.91015625 C43 16 43 16 42 17 C38.90918535 17.1011692 35.84117445 17.13968558 32.75 17.1328125 C31.82155273 17.13376923 30.89310547 17.13472595 29.93652344 17.13571167 C27.96940035 17.13639355 26.00227504 17.13453872 24.03515625 17.13037109 C21.01296974 17.12502295 17.99093185 17.13031582 14.96875 17.13671875 C13.06249967 17.13605797 11.15624943 17.13477681 9.25 17.1328125 C7.88439941 17.13584885 7.88439941 17.13584885 6.49121094 17.13894653 C0.11494969 17.11494969 0.11494969 17.11494969 -1 16 C-1.09932392 13.68925832 -1.12969618 11.37537058 -1.125 9.0625 C-1.12757813 7.79535156 -1.13015625 6.52820312 -1.1328125 5.22265625 C-1 2 -1 2 0 0 Z " fill="#000000" transform="translate(134,53)"/>
</svg>
