<?xml version="1.0" standalone="no"?>
<!DOCTYPE svg PUBLIC "-//W3C//DTD SVG 20010904//EN"
 "http://www.w3.org/TR/2001/REC-SVG-20010904/DTD/svg10.dtd">
<svg version="1.0" xmlns="http://www.w3.org/2000/svg"
 width="343.000000pt" height="86.000000pt" viewBox="0 0 343.000000 86.000000"
 preserveAspectRatio="xMidYMid meet">
<metadata>
Created by potrace 1.10, written by Peter Selinger 2001-2011
</metadata>
<g transform="translate(0.000000,86.000000) scale(0.100000,-0.100000)"
fill="#073297" stroke="none">
<path d="M0 430 l0 -430 1715 0 1715 0 0 430 0 430 -1715 0 -1715 0 0 -430z
m445 226 c177 -82 221 -320 83 -453 -57 -55 -100 -75 -174 -81 -88 -7 -152 17
-218 81 -124 122 -113 308 25 419 77 62 194 76 284 34z m294 15 c11 -7 13 -60
13 -266 1 -221 -2 -259 -15 -273 -14 -13 -18 -13 -33 -2 -14 13 -16 41 -13
265 3 277 8 301 48 276z m219 -33 c8 -8 12 -48 12 -114 0 -57 4 -105 8 -108 5
-3 23 41 41 97 36 111 53 137 86 137 31 0 49 -25 75 -105 25 -79 40 -102 40
-63 0 61 47 129 107 154 43 18 123 18 150 -1 18 -13 22 -13 33 0 18 22 54 18
77 -7 11 -13 38 -52 59 -87 l39 -65 3 74 c2 41 8 80 14 87 14 17 38 16 59 -3
15 -14 20 -14 41 -1 32 20 439 24 456 5 5 -7 17 -39 25 -71 9 -33 18 -61 20
-64 3 -2 11 22 17 54 26 124 93 126 125 3 17 -64 22 -70 31 -34 18 80 25 103
39 114 20 17 62 4 70 -21 6 -18 9 -19 23 -7 36 28 64 38 109 38 57 0 105 -26
133 -72 l20 -33 0 34 c0 53 23 71 89 71 61 0 105 -21 127 -62 13 -23 13 -23
14 7 0 34 15 55 39 55 25 0 51 -32 51 -64 l0 -31 43 48 c46 49 89 63 101 31
10 -25 8 -28 -44 -93 -28 -34 -50 -65 -50 -69 0 -4 20 -30 43 -57 63 -72 70
-88 46 -103 -33 -21 -55 -13 -98 33 -40 43 -41 44 -41 18 0 -47 -49 -80 -77
-52 -8 8 -17 8 -31 0 -11 -6 -28 -11 -36 -11 -19 0 -44 36 -48 70 -8 57 -35
68 -33 13 2 -47 -9 -70 -36 -78 -30 -10 -59 21 -59 63 l0 35 -23 -34 c-42 -63
-140 -89 -207 -54 -33 17 -80 90 -80 124 0 39 -16 14 -35 -54 -19 -70 -39 -91
-81 -81 -18 5 -27 18 -39 58 -8 28 -15 58 -15 65 0 32 -19 -1 -26 -44 -11 -72
-60 -106 -96 -65 -9 9 -29 67 -45 127 -27 102 -31 110 -54 113 l-26 3 -6 -117
c-6 -132 -17 -156 -61 -136 -23 10 -24 15 -28 126 -1 63 -6 117 -10 121 -3 4
-33 7 -65 7 -96 1 -103 0 -103 -22 0 -17 7 -20 39 -20 58 0 91 -41 56 -70 -8
-6 -33 -14 -55 -17 -35 -5 -41 -9 -38 -27 2 -16 11 -22 38 -24 66 -5 80 -11
80 -35 0 -38 -19 -47 -99 -47 -55 0 -79 4 -93 17 -17 15 -19 15 -38 -2 -34
-31 -64 -13 -117 70 -27 41 -50 74 -53 74 -3 1 -5 -28 -6 -64 -1 -36 -7 -71
-14 -80 -16 -19 -44 -19 -59 -1 -10 12 -16 12 -42 -1 -45 -23 -128 -13 -178
20 -36 24 -41 25 -41 9 0 -10 -5 -23 -12 -30 -28 -28 -67 -4 -85 53 -8 25 -16
31 -44 33 -32 3 -35 0 -57 -48 -18 -40 -28 -50 -47 -50 -13 0 -27 4 -30 10 -4
6 -13 5 -25 -3 -15 -9 -25 -9 -38 -1 -15 10 -17 31 -20 164 -3 157 2 180 37
180 9 0 22 -5 29 -12z m40 -371 c15 -10 16 -93 1 -102 -17 -11 -83 -12 -96 -2
-15 11 -17 89 -3 103 12 12 79 13 98 1z m245 4 c4 -1 7 -20 7 -43 0 -70 -48
-100 -90 -58 -22 22 -27 79 -10 96 9 9 50 11 93 5z m221 -7 c36 -35 9 -114
-39 -114 -32 0 -45 19 -45 65 0 23 5 46 12 53 17 17 54 15 72 -4z"/>
<path d="M246 644 c-66 -21 -137 -93 -161 -163 -33 -101 -1 -212 82 -280 158
-131 399 -31 420 174 11 101 -49 210 -141 257 -52 27 -138 32 -200 12z m178
-18 c48 -20 107 -75 127 -121 26 -57 25 -156 -2 -212 -86 -177 -352 -177 -435
1 -59 126 -11 266 110 322 59 28 148 32 200 10z"/>
<path d="M275 622 c-38 -8 -103 -53 -128 -90 -134 -193 70 -436 281 -335 117
56 163 193 104 310 -45 87 -153 135 -257 115z m125 -52 c0 -15 7 -20 25 -20
24 0 25 -2 25 -75 l0 -76 -97 3 -98 3 -3 73 c-3 71 -3 72 23 72 18 0 25 5 25
20 0 17 7 20 50 20 43 0 50 -3 50 -20z m-27 -200 c30 0 40 -4 44 -20 5 -19 7
-18 40 10 38 33 61 38 70 14 4 -11 -14 -36 -58 -80 l-64 -64 -78 15 c-44 8
-95 16 -115 16 -29 1 -31 3 -12 7 14 2 67 -1 118 -8 l94 -13 56 56 c43 43 54
59 45 68 -9 9 -21 4 -50 -20 -32 -26 -45 -31 -88 -29 l-50 1 43 4 c43 4 56 18
25 27 -10 2 -48 7 -86 11 -56 6 -68 4 -73 -9 -4 -10 -17 -16 -33 -15 -20 1
-22 2 -6 6 11 3 28 13 37 23 14 14 24 16 60 9 24 -4 60 -8 81 -9z"/>
<path d="M310 565 c0 -11 11 -15 40 -15 29 0 40 4 40 15 0 11 -11 15 -40 15
-29 0 -40 -4 -40 -15z"/>
<path d="M260 520 c0 -19 7 -20 90 -20 83 0 90 1 90 20 0 19 -7 20 -90 20 -83
0 -90 -1 -90 -20z"/>
<path d="M260 450 l0 -40 90 0 90 0 0 40 c0 33 -3 40 -19 40 -11 0 -22 -6 -24
-12 -4 -10 -6 -10 -6 0 -1 16 -63 16 -79 0 -9 -9 -12 -9 -12 0 0 7 -9 12 -20
12 -17 0 -20 -7 -20 -40z"/>
<path d="M715 400 c0 -143 3 -260 8 -260 4 0 7 117 7 260 0 143 -3 260 -7 260
-5 0 -8 -117 -8 -260z"/>
<path d="M910 475 c0 -144 1 -151 20 -151 19 0 20 7 20 151 0 144 -1 151 -20
151 -19 0 -20 -7 -20 -151z"/>
<path d="M1101 621 c-22 -6 -31 -26 -73 -151 -26 -80 -48 -145 -48 -146 0 0
10 0 22 1 16 1 25 13 37 51 l16 49 51 0 52 0 16 -50 c12 -39 20 -51 36 -51 11
0 19 5 17 11 -2 5 -25 74 -51 153 -26 78 -48 142 -49 141 -1 -1 -13 -4 -26 -8z
m5 -161 c-23 -3 -42 -5 -43 -5 -1 1 7 32 20 69 l22 67 21 -63 21 -63 -41 -5z"/>
<path d="M1355 623 c-11 -3 -32 -14 -48 -25 -79 -57 -76 -199 6 -253 52 -34
158 -28 165 9 3 16 -1 17 -30 11 -101 -23 -158 17 -158 110 0 90 76 140 168
110 16 -4 22 -2 22 9 0 8 -4 18 -10 21 -14 9 -92 14 -115 8z"/>
<path d="M1726 623 c-16 -4 -18 -15 -15 -128 4 -111 3 -121 -10 -97 -7 15 -41
71 -73 125 -49 79 -64 97 -84 97 l-24 0 0 -145 c0 -140 1 -145 21 -145 20 0
21 4 17 120 -1 66 -2 120 -2 120 1 0 34 -54 74 -120 60 -99 77 -120 96 -120
l24 0 0 150 c0 83 -1 149 -2 149 -2 -1 -11 -3 -22 -6z"/>
<path d="M2093 622 c-91 -2 -113 -5 -113 -17 0 -11 12 -15 45 -15 l45 0 0
-130 c0 -123 1 -130 20 -130 19 0 20 7 20 130 l0 130 45 0 c29 0 45 4 46 13 0
12 19 -51 59 -199 20 -74 23 -81 44 -77 20 4 26 17 45 106 37 167 34 157 39
122 2 -16 12 -64 22 -105 10 -41 21 -87 24 -101 4 -21 10 -25 29 -22 20 4 27
20 59 136 20 73 39 140 43 151 7 16 5 17 -16 11 -13 -4 -25 -8 -27 -10 -1 -1
-15 -58 -31 -126 -25 -110 -29 -120 -35 -89 -4 19 -17 77 -28 128 -20 83 -24
92 -45 92 -18 0 -24 -8 -33 -42 -6 -24 -13 -50 -15 -58 -3 -8 -7 -31 -10 -50
-19 -113 -19 -113 -50 19 -24 100 -34 125 -50 130 -11 3 -71 5 -132 3z"/>
<path d="M2652 610 c-66 -40 -90 -127 -58 -204 29 -69 113 -102 180 -71 110
53 102 253 -11 284 -54 15 -74 14 -111 -9z m133 -52 c36 -43 36 -124 -1 -167
-44 -53 -123 -40 -150 24 -30 72 -4 152 55 171 45 14 66 8 96 -28z"/>
<path d="M2662 540 c-19 -31 -15 -103 8 -133 16 -20 27 -25 53 -21 17 2 38 11
45 21 18 25 16 118 -4 137 -23 23 -86 21 -102 -4z"/>
<path d="M2907 624 c-4 -4 -7 -74 -7 -155 0 -142 1 -147 20 -142 17 5 20 14
20 64 0 55 2 59 23 59 32 0 53 -27 62 -76 5 -34 11 -43 31 -47 13 -2 24 -4 24
-3 -2 27 -44 132 -57 142 -15 11 -16 13 -2 14 25 0 49 33 49 66 -1 53 -36 78
-115 83 -22 1 -44 -1 -48 -5z m111 -46 c16 -14 15 -63 -1 -77 -8 -6 -28 -14
-45 -17 l-32 -6 0 60 0 60 33 -5 c17 -3 38 -10 45 -15z"/>
<path d="M2964 535 c0 -32 30 -30 34 3 3 16 -2 22 -15 22 -14 0 -19 -7 -19
-25z"/>
<path d="M3138 622 c-16 -3 -18 -18 -18 -147 0 -134 1 -143 20 -148 18 -5 20
0 20 53 0 33 4 61 8 64 4 2 29 -22 56 -55 26 -32 54 -59 61 -59 7 0 22 -3 32
-7 10 -4 -12 29 -48 73 l-67 79 64 75 c34 41 62 76 60 77 -12 13 -63 -27 -108
-82 l-53 -67 -5 74 c-4 63 -7 73 -22 70z"/>
<path d="M1808 470 c-2 -122 0 -149 10 -145 8 3 45 5 83 5 55 0 69 3 69 15 0
12 -14 15 -65 15 l-65 0 0 50 0 50 59 0 c50 0 59 3 57 17 -2 14 -13 16 -59 14
l-57 -2 0 50 0 51 65 0 c51 0 65 3 65 15 0 12 -15 15 -79 15 l-80 0 -3 -150z"/>
<path d="M1339 539 c-24 -25 -28 -37 -25 -71 7 -64 32 -82 116 -83 l70 -1 0
91 0 90 -66 2 c-62 3 -68 1 -95 -28z"/>
<path d="M3078 496 c-15 -21 -15 -27 -2 -75 9 -28 17 -51 19 -51 3 0 4 34 3
75 -1 41 -2 75 -2 75 -1 0 -9 -11 -18 -24z"/>
<path d="M1773 465 c0 -27 2 -38 4 -22 2 15 2 37 0 50 -2 12 -4 0 -4 -28z"/>
<path d="M910 215 c0 -25 5 -45 10 -45 6 0 10 9 10 20 0 14 7 20 21 20 16 0
19 -4 14 -20 -4 -13 -2 -20 7 -20 9 0 13 14 13 45 0 27 -5 45 -11 45 -7 0 -11
-7 -10 -16 0 -9 -7 -18 -16 -19 -12 -2 -18 3 -18 16 0 10 -4 19 -10 19 -5 0
-10 -20 -10 -45z"/>
<path d="M1160 226 c0 -40 24 -65 48 -49 19 11 30 83 13 83 -6 0 -11 -16 -11
-35 0 -24 -5 -35 -15 -35 -10 0 -15 11 -15 35 0 19 -4 35 -10 35 -5 0 -10 -15
-10 -34z"/>
<path d="M1400 215 c0 -36 3 -45 18 -45 29 0 41 14 37 45 -2 17 -4 33 -4 38
-1 4 -12 7 -26 7 -23 0 -25 -4 -25 -45z m35 26 c3 -5 1 -12 -5 -16 -5 -3 -10
1 -10 9 0 18 6 21 15 7z m5 -41 c0 -5 -4 -10 -10 -10 -5 0 -10 5 -10 10 0 6 5
10 10 10 6 0 10 -4 10 -10z"/>
</g>
</svg>
